<mxfile host="app.diagrams.net" modified="2021-11-22T06:52:44.447Z" agent="5.0 (Windows NT 10.0; Win64; x64) AppleWebKit/537.36 (KHTML, like Gecko) Chrome/96.0.4664.45 Safari/537.36" etag="Wlb4ANwCDzLwSOmVjkTD" version="14.7.2" type="github">
  <diagram id="qZ_PKFrn17TshFRI4M-s" name="Page-1">
    <mxGraphModel dx="868" dy="450" grid="1" gridSize="10" guides="1" tooltips="1" connect="1" arrows="1" fold="1" page="1" pageScale="1" pageWidth="850" pageHeight="1100" background="#283618" math="0" shadow="0">
      <root>
        <mxCell id="0" />
        <mxCell id="1" parent="0" />
        <mxCell id="BtquzjGKEidF6e15de9X-21" value="" style="edgeStyle=orthogonalEdgeStyle;curved=0;rounded=1;sketch=0;orthogonalLoop=1;jettySize=auto;html=1;fontColor=#FEFAE0;strokeColor=#DDA15E;fillColor=#BC6C25;labelBackgroundColor=#283618;" edge="1" parent="1" source="BtquzjGKEidF6e15de9X-1" target="BtquzjGKEidF6e15de9X-4">
          <mxGeometry relative="1" as="geometry" />
        </mxCell>
        <mxCell id="BtquzjGKEidF6e15de9X-1" value="&lt;span style=&quot;font-size: 16px&quot;&gt;Pulse.py&lt;br&gt;&lt;/span&gt;" style="whiteSpace=wrap;html=1;fontFamily=Times New Roman;fillColor=#BC6C25;strokeColor=#DDA15E;fontColor=#FEFAE0;" vertex="1" parent="1">
          <mxGeometry x="100" y="120" width="120" height="199" as="geometry" />
        </mxCell>
        <mxCell id="BtquzjGKEidF6e15de9X-34" value="" style="edgeStyle=orthogonalEdgeStyle;curved=0;rounded=1;sketch=0;orthogonalLoop=1;jettySize=auto;html=1;fontColor=#FEFAE0;strokeColor=#DDA15E;fillColor=#BC6C25;labelBackgroundColor=#283618;" edge="1" parent="1" source="BtquzjGKEidF6e15de9X-4">
          <mxGeometry relative="1" as="geometry">
            <mxPoint x="315.75" y="220" as="targetPoint" />
          </mxGeometry>
        </mxCell>
        <mxCell id="BtquzjGKEidF6e15de9X-4" value="" style="outlineConnect=0;dashed=0;verticalLabelPosition=bottom;verticalAlign=top;align=center;html=1;shape=mxgraph.aws3.mfa_token;fontFamily=Times New Roman;labelBackgroundColor=none;fillColor=#BC6C25;strokeColor=#DDA15E;fontColor=#FEFAE0;" vertex="1" parent="1">
          <mxGeometry x="290" y="130" width="51.5" height="51.5" as="geometry" />
        </mxCell>
        <mxCell id="BtquzjGKEidF6e15de9X-10" value="&lt;font face=&quot;Times New Roman&quot;&gt;Oscar Token Generation Based on Env(Test/ Prod)&lt;/font&gt;" style="shape=callout;rounded=1;whiteSpace=wrap;html=1;perimeter=calloutPerimeter;sketch=0;fontColor=#FEFAE0;strokeColor=#DDA15E;fillColor=#BC6C25;" vertex="1" parent="1">
          <mxGeometry x="260" y="50" width="120" height="80" as="geometry" />
        </mxCell>
        <mxCell id="BtquzjGKEidF6e15de9X-36" value="" style="edgeStyle=orthogonalEdgeStyle;curved=0;rounded=1;sketch=0;orthogonalLoop=1;jettySize=auto;html=1;fontColor=#FEFAE0;strokeColor=#DDA15E;fillColor=#BC6C25;labelBackgroundColor=#283618;" edge="1" parent="1" source="BtquzjGKEidF6e15de9X-11" target="BtquzjGKEidF6e15de9X-16">
          <mxGeometry relative="1" as="geometry" />
        </mxCell>
        <mxCell id="BtquzjGKEidF6e15de9X-11" value="" style="outlineConnect=0;dashed=0;verticalLabelPosition=bottom;verticalAlign=top;align=center;html=1;shape=mxgraph.aws3.sqs;fillColor=#BC6C25;rounded=0;sketch=0;fontColor=#FEFAE0;strokeColor=#DDA15E;" vertex="1" parent="1">
          <mxGeometry x="570" y="140" width="76.5" height="93" as="geometry" />
        </mxCell>
        <mxCell id="BtquzjGKEidF6e15de9X-14" value="&lt;br&gt;Event&lt;br&gt;Managment&lt;br&gt;(PULSE)" style="ellipse;shape=cloud;whiteSpace=wrap;html=1;dashed=0;fontFamily=Times New Roman;fontColor=#FEFAE0;verticalAlign=top;strokeColor=#DDA15E;fillColor=#BC6C25;" vertex="1" parent="1">
          <mxGeometry x="551" y="48.75" width="100" height="80" as="geometry" />
        </mxCell>
        <mxCell id="BtquzjGKEidF6e15de9X-43" value="" style="edgeStyle=orthogonalEdgeStyle;curved=0;rounded=1;sketch=0;orthogonalLoop=1;jettySize=auto;html=1;fontColor=#FEFAE0;strokeColor=#DDA15E;fillColor=#BC6C25;" edge="1" parent="1" source="BtquzjGKEidF6e15de9X-16">
          <mxGeometry relative="1" as="geometry">
            <mxPoint x="220" y="310" as="targetPoint" />
          </mxGeometry>
        </mxCell>
        <mxCell id="BtquzjGKEidF6e15de9X-16" value="DECODE Message BODY from Base 64" style="rounded=0;whiteSpace=wrap;html=1;sketch=0;fontColor=#FEFAE0;strokeColor=#DDA15E;fillColor=#BC6C25;" vertex="1" parent="1">
          <mxGeometry x="550" y="280" width="120" height="60" as="geometry" />
        </mxCell>
        <mxCell id="BtquzjGKEidF6e15de9X-26" value="" style="endArrow=classic;html=1;fontColor=#FEFAE0;strokeColor=#DDA15E;fillColor=#BC6C25;labelBackgroundColor=#283618;" edge="1" parent="1">
          <mxGeometry width="50" height="50" relative="1" as="geometry">
            <mxPoint x="220" y="220" as="sourcePoint" />
            <mxPoint x="570" y="220" as="targetPoint" />
          </mxGeometry>
        </mxCell>
        <mxCell id="BtquzjGKEidF6e15de9X-37" value="token" style="text;html=1;strokeColor=none;fillColor=none;align=center;verticalAlign=middle;whiteSpace=wrap;rounded=0;sketch=0;fontColor=#FEFAE0;" vertex="1" parent="1">
          <mxGeometry x="320" y="180" width="40" height="20" as="geometry" />
        </mxCell>
        <mxCell id="BtquzjGKEidF6e15de9X-39" value="/eventID" style="text;html=1;strokeColor=none;fillColor=none;align=center;verticalAlign=middle;whiteSpace=wrap;rounded=0;sketch=0;fontColor=#FEFAE0;" vertex="1" parent="1">
          <mxGeometry x="260" y="201" width="40" height="20" as="geometry" />
        </mxCell>
        <mxCell id="BtquzjGKEidF6e15de9X-40" value="Test/prod" style="text;html=1;strokeColor=none;fillColor=none;align=center;verticalAlign=middle;whiteSpace=wrap;rounded=0;sketch=0;fontColor=#FEFAE0;" vertex="1" parent="1">
          <mxGeometry x="232" y="139" width="40" height="20" as="geometry" />
        </mxCell>
        <mxCell id="BtquzjGKEidF6e15de9X-41" value="/eventID +token" style="text;html=1;strokeColor=none;fillColor=none;align=center;verticalAlign=middle;whiteSpace=wrap;rounded=0;sketch=0;fontColor=#FEFAE0;" vertex="1" parent="1">
          <mxGeometry x="432" y="197" width="40" height="20" as="geometry" />
        </mxCell>
        <mxCell id="BtquzjGKEidF6e15de9X-44" value="Final Decode Payload" style="text;html=1;strokeColor=none;fillColor=none;align=center;verticalAlign=middle;whiteSpace=wrap;rounded=0;sketch=0;fontColor=#FEFAE0;" vertex="1" parent="1">
          <mxGeometry x="370" y="283" width="101" height="20" as="geometry" />
        </mxCell>
      </root>
    </mxGraphModel>
  </diagram>
</mxfile>
